<mxfile host="65bd71144e">
    <diagram id="C5RBs43oDa-KdzZeNtuy" name="Page-1">
        <mxGraphModel dx="6853" dy="3107" grid="1" gridSize="10" guides="1" tooltips="1" connect="1" arrows="1" fold="1" page="1" pageScale="1" pageWidth="827" pageHeight="1169" math="0" shadow="0">
            <root>
                <mxCell id="WIyWlLk6GJQsqaUBKTNV-0"/>
                <mxCell id="WIyWlLk6GJQsqaUBKTNV-1" parent="WIyWlLk6GJQsqaUBKTNV-0"/>
                <mxCell id="zkfFHV4jXpPFQw0GAbJ--6" value="Etudiant" style="swimlane;fontStyle=0;align=center;verticalAlign=top;childLayout=stackLayout;horizontal=1;startSize=26;horizontalStack=0;resizeParent=1;resizeLast=0;collapsible=1;marginBottom=0;rounded=0;shadow=0;strokeWidth=1;labelBackgroundColor=none;fillColor=#5D7F99;strokeColor=#D0CEE2;fontColor=#1A1A1A;" parent="WIyWlLk6GJQsqaUBKTNV-1" vertex="1">
                    <mxGeometry x="90" y="675" width="160" height="185" as="geometry">
                        <mxRectangle x="130" y="380" width="160" height="26" as="alternateBounds"/>
                    </mxGeometry>
                </mxCell>
                <mxCell id="zkfFHV4jXpPFQw0GAbJ--9" value="" style="line;html=1;strokeWidth=1;align=left;verticalAlign=middle;spacingTop=-1;spacingLeft=3;spacingRight=3;rotatable=0;labelPosition=right;points=[];portConstraint=eastwest;labelBackgroundColor=none;fillColor=#5D7F99;strokeColor=#D0CEE2;fontColor=#1A1A1A;rounded=0;" parent="zkfFHV4jXpPFQw0GAbJ--6" vertex="1">
                    <mxGeometry y="26" width="160" height="8" as="geometry"/>
                </mxCell>
                <mxCell id="KPbJ_3w0T-IEtuTJ-LnU-7" value="CNE" style="text;html=1;align=center;verticalAlign=middle;resizable=0;points=[];autosize=1;strokeColor=none;fillColor=none;fontColor=#1A1A1A;" parent="zkfFHV4jXpPFQw0GAbJ--6" vertex="1">
                    <mxGeometry y="34" width="160" height="30" as="geometry"/>
                </mxCell>
                <mxCell id="KPbJ_3w0T-IEtuTJ-LnU-11" value="Nom" style="text;html=1;align=center;verticalAlign=middle;resizable=0;points=[];autosize=1;strokeColor=none;fillColor=none;fontColor=#1A1A1A;" parent="zkfFHV4jXpPFQw0GAbJ--6" vertex="1">
                    <mxGeometry y="64" width="160" height="30" as="geometry"/>
                </mxCell>
                <mxCell id="KPbJ_3w0T-IEtuTJ-LnU-12" value="Prenom" style="text;html=1;align=center;verticalAlign=middle;resizable=0;points=[];autosize=1;strokeColor=none;fillColor=none;fontColor=#1A1A1A;" parent="zkfFHV4jXpPFQw0GAbJ--6" vertex="1">
                    <mxGeometry y="94" width="160" height="30" as="geometry"/>
                </mxCell>
                <mxCell id="KPbJ_3w0T-IEtuTJ-LnU-13" value="Password" style="text;html=1;align=center;verticalAlign=middle;resizable=0;points=[];autosize=1;strokeColor=none;fillColor=none;fontColor=#1A1A1A;" parent="zkfFHV4jXpPFQw0GAbJ--6" vertex="1">
                    <mxGeometry y="124" width="160" height="30" as="geometry"/>
                </mxCell>
                <mxCell id="KPbJ_3w0T-IEtuTJ-LnU-14" value="Email" style="text;html=1;align=center;verticalAlign=middle;resizable=0;points=[];autosize=1;strokeColor=none;fillColor=none;fontColor=#1A1A1A;" parent="zkfFHV4jXpPFQw0GAbJ--6" vertex="1">
                    <mxGeometry y="154" width="160" height="30" as="geometry"/>
                </mxCell>
                <mxCell id="KPbJ_3w0T-IEtuTJ-LnU-0" value="Enseignant" style="swimlane;fontStyle=0;align=center;verticalAlign=top;childLayout=stackLayout;horizontal=1;startSize=26;horizontalStack=0;resizeParent=1;resizeLast=0;collapsible=1;marginBottom=0;rounded=0;shadow=0;strokeWidth=1;labelBackgroundColor=none;fillColor=#5D7F99;strokeColor=#D0CEE2;fontColor=#1A1A1A;" parent="WIyWlLk6GJQsqaUBKTNV-1" vertex="1">
                    <mxGeometry x="480" y="340.5" width="160" height="154" as="geometry">
                        <mxRectangle x="130" y="380" width="160" height="26" as="alternateBounds"/>
                    </mxGeometry>
                </mxCell>
                <mxCell id="KPbJ_3w0T-IEtuTJ-LnU-1" value="" style="line;html=1;strokeWidth=1;align=left;verticalAlign=middle;spacingTop=-1;spacingLeft=3;spacingRight=3;rotatable=0;labelPosition=right;points=[];portConstraint=eastwest;labelBackgroundColor=none;fillColor=#5D7F99;strokeColor=#D0CEE2;fontColor=#1A1A1A;rounded=0;" parent="KPbJ_3w0T-IEtuTJ-LnU-0" vertex="1">
                    <mxGeometry y="26" width="160" height="8" as="geometry"/>
                </mxCell>
                <mxCell id="KPbJ_3w0T-IEtuTJ-LnU-26" value="CNE" style="text;html=1;align=center;verticalAlign=middle;resizable=0;points=[];autosize=1;strokeColor=none;fillColor=none;fontColor=#1A1A1A;" parent="KPbJ_3w0T-IEtuTJ-LnU-0" vertex="1">
                    <mxGeometry y="34" width="160" height="30" as="geometry"/>
                </mxCell>
                <mxCell id="KPbJ_3w0T-IEtuTJ-LnU-27" value="Nom" style="text;html=1;align=center;verticalAlign=middle;resizable=0;points=[];autosize=1;strokeColor=none;fillColor=none;fontColor=#1A1A1A;" parent="KPbJ_3w0T-IEtuTJ-LnU-0" vertex="1">
                    <mxGeometry y="64" width="160" height="30" as="geometry"/>
                </mxCell>
                <mxCell id="KPbJ_3w0T-IEtuTJ-LnU-28" value="Prenom" style="text;html=1;align=center;verticalAlign=middle;resizable=0;points=[];autosize=1;strokeColor=none;fillColor=none;fontColor=#1A1A1A;" parent="KPbJ_3w0T-IEtuTJ-LnU-0" vertex="1">
                    <mxGeometry y="94" width="160" height="30" as="geometry"/>
                </mxCell>
                <mxCell id="KPbJ_3w0T-IEtuTJ-LnU-32" value="Password" style="text;html=1;align=center;verticalAlign=middle;resizable=0;points=[];autosize=1;strokeColor=none;fillColor=none;fontColor=#1A1A1A;" parent="KPbJ_3w0T-IEtuTJ-LnU-0" vertex="1">
                    <mxGeometry y="124" width="160" height="30" as="geometry"/>
                </mxCell>
                <mxCell id="KPbJ_3w0T-IEtuTJ-LnU-2" value="Administrateur" style="swimlane;fontStyle=0;align=center;verticalAlign=top;childLayout=stackLayout;horizontal=1;startSize=26;horizontalStack=0;resizeParent=1;resizeLast=0;collapsible=1;marginBottom=0;rounded=0;shadow=0;strokeWidth=1;labelBackgroundColor=none;fillColor=#5D7F99;strokeColor=#D0CEE2;fontColor=#1A1A1A;" parent="WIyWlLk6GJQsqaUBKTNV-1" vertex="1">
                    <mxGeometry x="920" y="320" width="160" height="195" as="geometry">
                        <mxRectangle x="130" y="380" width="160" height="26" as="alternateBounds"/>
                    </mxGeometry>
                </mxCell>
                <mxCell id="KPbJ_3w0T-IEtuTJ-LnU-3" value="" style="line;html=1;strokeWidth=1;align=left;verticalAlign=middle;spacingTop=-1;spacingLeft=3;spacingRight=3;rotatable=0;labelPosition=right;points=[];portConstraint=eastwest;labelBackgroundColor=none;fillColor=#5D7F99;strokeColor=#D0CEE2;fontColor=#1A1A1A;rounded=0;" parent="KPbJ_3w0T-IEtuTJ-LnU-2" vertex="1">
                    <mxGeometry y="26" width="160" height="8" as="geometry"/>
                </mxCell>
                <mxCell id="KPbJ_3w0T-IEtuTJ-LnU-16" value="ID" style="text;html=1;align=center;verticalAlign=middle;resizable=0;points=[];autosize=1;strokeColor=none;fillColor=none;fontColor=#1A1A1A;" parent="KPbJ_3w0T-IEtuTJ-LnU-2" vertex="1">
                    <mxGeometry y="34" width="160" height="30" as="geometry"/>
                </mxCell>
                <mxCell id="KPbJ_3w0T-IEtuTJ-LnU-17" value="Nom" style="text;html=1;align=center;verticalAlign=middle;resizable=0;points=[];autosize=1;strokeColor=none;fillColor=none;fontColor=#1A1A1A;" parent="KPbJ_3w0T-IEtuTJ-LnU-2" vertex="1">
                    <mxGeometry y="64" width="160" height="30" as="geometry"/>
                </mxCell>
                <mxCell id="KPbJ_3w0T-IEtuTJ-LnU-18" value="Prenom" style="text;html=1;align=center;verticalAlign=middle;resizable=0;points=[];autosize=1;strokeColor=none;fillColor=none;fontColor=#1A1A1A;" parent="KPbJ_3w0T-IEtuTJ-LnU-2" vertex="1">
                    <mxGeometry y="94" width="160" height="30" as="geometry"/>
                </mxCell>
                <mxCell id="KPbJ_3w0T-IEtuTJ-LnU-19" value="Email" style="text;html=1;align=center;verticalAlign=middle;resizable=0;points=[];autosize=1;strokeColor=none;fillColor=none;fontColor=#1A1A1A;" parent="KPbJ_3w0T-IEtuTJ-LnU-2" vertex="1">
                    <mxGeometry y="124" width="160" height="30" as="geometry"/>
                </mxCell>
                <mxCell id="KPbJ_3w0T-IEtuTJ-LnU-20" value="Password" style="text;html=1;align=center;verticalAlign=middle;resizable=0;points=[];autosize=1;strokeColor=none;fillColor=none;fontColor=#1A1A1A;" parent="KPbJ_3w0T-IEtuTJ-LnU-2" vertex="1">
                    <mxGeometry y="154" width="160" height="30" as="geometry"/>
                </mxCell>
                <mxCell id="KPbJ_3w0T-IEtuTJ-LnU-34" value="FiliÃ¨re" style="swimlane;fontStyle=0;align=center;verticalAlign=top;childLayout=stackLayout;horizontal=1;startSize=26;horizontalStack=0;resizeParent=1;resizeLast=0;collapsible=1;marginBottom=0;rounded=0;shadow=0;strokeWidth=1;labelBackgroundColor=none;fillColor=#5D7F99;strokeColor=#D0CEE2;fontColor=#1A1A1A;" parent="WIyWlLk6GJQsqaUBKTNV-1" vertex="1">
                    <mxGeometry x="100" y="360" width="160" height="130" as="geometry">
                        <mxRectangle x="130" y="380" width="160" height="26" as="alternateBounds"/>
                    </mxGeometry>
                </mxCell>
                <mxCell id="KPbJ_3w0T-IEtuTJ-LnU-35" value="" style="line;html=1;strokeWidth=1;align=left;verticalAlign=middle;spacingTop=-1;spacingLeft=3;spacingRight=3;rotatable=0;labelPosition=right;points=[];portConstraint=eastwest;labelBackgroundColor=none;fillColor=#5D7F99;strokeColor=#D0CEE2;fontColor=#1A1A1A;rounded=0;" parent="KPbJ_3w0T-IEtuTJ-LnU-34" vertex="1">
                    <mxGeometry y="26" width="160" height="8" as="geometry"/>
                </mxCell>
                <mxCell id="KPbJ_3w0T-IEtuTJ-LnU-36" value="ID_filiere" style="text;html=1;align=center;verticalAlign=middle;resizable=0;points=[];autosize=1;strokeColor=none;fillColor=none;fontColor=#1A1A1A;" parent="KPbJ_3w0T-IEtuTJ-LnU-34" vertex="1">
                    <mxGeometry y="34" width="160" height="30" as="geometry"/>
                </mxCell>
                <mxCell id="KPbJ_3w0T-IEtuTJ-LnU-37" value="Nom" style="text;html=1;align=center;verticalAlign=middle;resizable=0;points=[];autosize=1;strokeColor=none;fillColor=none;fontColor=#1A1A1A;" parent="KPbJ_3w0T-IEtuTJ-LnU-34" vertex="1">
                    <mxGeometry y="64" width="160" height="30" as="geometry"/>
                </mxCell>
                <mxCell id="KPbJ_3w0T-IEtuTJ-LnU-38" value="Departement" style="text;html=1;align=center;verticalAlign=middle;resizable=0;points=[];autosize=1;strokeColor=none;fillColor=none;fontColor=#1A1A1A;" parent="KPbJ_3w0T-IEtuTJ-LnU-34" vertex="1">
                    <mxGeometry y="94" width="160" height="30" as="geometry"/>
                </mxCell>
                <mxCell id="KPbJ_3w0T-IEtuTJ-LnU-40" value="module" style="swimlane;fontStyle=0;align=center;verticalAlign=top;childLayout=stackLayout;horizontal=1;startSize=26;horizontalStack=0;resizeParent=1;resizeLast=0;collapsible=1;marginBottom=0;rounded=0;shadow=0;strokeWidth=1;labelBackgroundColor=none;fillColor=#5D7F99;strokeColor=#D0CEE2;fontColor=#1A1A1A;" parent="WIyWlLk6GJQsqaUBKTNV-1" vertex="1">
                    <mxGeometry x="770" y="590" width="160" height="100" as="geometry">
                        <mxRectangle x="130" y="380" width="160" height="26" as="alternateBounds"/>
                    </mxGeometry>
                </mxCell>
                <mxCell id="KPbJ_3w0T-IEtuTJ-LnU-41" value="" style="line;html=1;strokeWidth=1;align=left;verticalAlign=middle;spacingTop=-1;spacingLeft=3;spacingRight=3;rotatable=0;labelPosition=right;points=[];portConstraint=eastwest;labelBackgroundColor=none;fillColor=#5D7F99;strokeColor=#D0CEE2;fontColor=#1A1A1A;rounded=0;" parent="KPbJ_3w0T-IEtuTJ-LnU-40" vertex="1">
                    <mxGeometry y="26" width="160" height="8" as="geometry"/>
                </mxCell>
                <mxCell id="KPbJ_3w0T-IEtuTJ-LnU-42" value="ID_module" style="text;html=1;align=center;verticalAlign=middle;resizable=0;points=[];autosize=1;strokeColor=none;fillColor=none;fontColor=#1A1A1A;" parent="KPbJ_3w0T-IEtuTJ-LnU-40" vertex="1">
                    <mxGeometry y="34" width="160" height="30" as="geometry"/>
                </mxCell>
                <mxCell id="KPbJ_3w0T-IEtuTJ-LnU-43" value="intitule_module" style="text;html=1;align=center;verticalAlign=middle;resizable=0;points=[];autosize=1;strokeColor=none;fillColor=none;fontColor=#1A1A1A;" parent="KPbJ_3w0T-IEtuTJ-LnU-40" vertex="1">
                    <mxGeometry y="64" width="160" height="30" as="geometry"/>
                </mxCell>
                <mxCell id="KPbJ_3w0T-IEtuTJ-LnU-48" value="Absence" style="swimlane;fontStyle=0;align=center;verticalAlign=top;childLayout=stackLayout;horizontal=1;startSize=26;horizontalStack=0;resizeParent=1;resizeLast=0;collapsible=1;marginBottom=0;rounded=0;shadow=0;strokeWidth=1;labelBackgroundColor=none;fillColor=#5D7F99;strokeColor=#D0CEE2;fontColor=#1A1A1A;" parent="WIyWlLk6GJQsqaUBKTNV-1" vertex="1">
                    <mxGeometry x="490" y="710" width="160" height="130" as="geometry">
                        <mxRectangle x="130" y="380" width="160" height="26" as="alternateBounds"/>
                    </mxGeometry>
                </mxCell>
                <mxCell id="KPbJ_3w0T-IEtuTJ-LnU-49" value="" style="line;html=1;strokeWidth=1;align=left;verticalAlign=middle;spacingTop=-1;spacingLeft=3;spacingRight=3;rotatable=0;labelPosition=right;points=[];portConstraint=eastwest;labelBackgroundColor=none;fillColor=#5D7F99;strokeColor=#D0CEE2;fontColor=#1A1A1A;rounded=0;" parent="KPbJ_3w0T-IEtuTJ-LnU-48" vertex="1">
                    <mxGeometry y="26" width="160" height="8" as="geometry"/>
                </mxCell>
                <mxCell id="KPbJ_3w0T-IEtuTJ-LnU-50" value="ID_absence" style="text;html=1;align=center;verticalAlign=middle;resizable=0;points=[];autosize=1;strokeColor=none;fillColor=none;fontColor=#1A1A1A;" parent="KPbJ_3w0T-IEtuTJ-LnU-48" vertex="1">
                    <mxGeometry y="34" width="160" height="30" as="geometry"/>
                </mxCell>
                <mxCell id="KPbJ_3w0T-IEtuTJ-LnU-51" value="Date" style="text;html=1;align=center;verticalAlign=middle;resizable=0;points=[];autosize=1;strokeColor=none;fillColor=none;fontColor=#1A1A1A;" parent="KPbJ_3w0T-IEtuTJ-LnU-48" vertex="1">
                    <mxGeometry y="64" width="160" height="30" as="geometry"/>
                </mxCell>
                <mxCell id="KPbJ_3w0T-IEtuTJ-LnU-52" value="Horaire" style="text;html=1;align=center;verticalAlign=middle;resizable=0;points=[];autosize=1;strokeColor=none;fillColor=none;fontColor=#1A1A1A;" parent="KPbJ_3w0T-IEtuTJ-LnU-48" vertex="1">
                    <mxGeometry y="94" width="160" height="30" as="geometry"/>
                </mxCell>
                <mxCell id="KPbJ_3w0T-IEtuTJ-LnU-60" value="" style="endArrow=none;html=1;rounded=1;strokeColor=#736CA8;align=center;verticalAlign=middle;fontFamily=Helvetica;fontSize=11;fontColor=#1A1A1A;labelBackgroundColor=default;" parent="WIyWlLk6GJQsqaUBKTNV-1" edge="1">
                    <mxGeometry width="50" height="50" relative="1" as="geometry">
                        <mxPoint x="170" y="675" as="sourcePoint"/>
                        <mxPoint x="170" y="490" as="targetPoint"/>
                    </mxGeometry>
                </mxCell>
                <mxCell id="KPbJ_3w0T-IEtuTJ-LnU-61" value="Appartient Ã " style="text;whiteSpace=wrap;html=1;fontFamily=Helvetica;fontSize=11;fontColor=#1A1A1A;labelBackgroundColor=default;" parent="WIyWlLk6GJQsqaUBKTNV-1" vertex="1">
                    <mxGeometry x="170" y="570" width="80" height="20" as="geometry"/>
                </mxCell>
                <mxCell id="KPbJ_3w0T-IEtuTJ-LnU-62" value="" style="endArrow=none;html=1;rounded=1;strokeColor=#736CA8;align=center;verticalAlign=middle;fontFamily=Helvetica;fontSize=11;fontColor=#1A1A1A;labelBackgroundColor=default;exitX=0.375;exitY=0.004;exitDx=0;exitDy=0;exitPerimeter=0;" parent="WIyWlLk6GJQsqaUBKTNV-1" source="KPbJ_3w0T-IEtuTJ-LnU-40" edge="1">
                    <mxGeometry width="50" height="50" relative="1" as="geometry">
                        <mxPoint x="750" y="575" as="sourcePoint"/>
                        <mxPoint x="640" y="423" as="targetPoint"/>
                        <Array as="points">
                            <mxPoint x="830" y="423"/>
                        </Array>
                    </mxGeometry>
                </mxCell>
                <mxCell id="KPbJ_3w0T-IEtuTJ-LnU-63" value="Enseigne" style="text;html=1;align=center;verticalAlign=middle;resizable=0;points=[];autosize=1;strokeColor=none;fillColor=none;fontFamily=Helvetica;fontSize=11;fontColor=#1A1A1A;labelBackgroundColor=default;" parent="WIyWlLk6GJQsqaUBKTNV-1" vertex="1">
                    <mxGeometry x="757" y="485" width="70" height="30" as="geometry"/>
                </mxCell>
                <mxCell id="KPbJ_3w0T-IEtuTJ-LnU-65" value="" style="endArrow=none;html=1;rounded=1;strokeColor=#736CA8;align=center;verticalAlign=middle;fontFamily=Helvetica;fontSize=11;fontColor=#1A1A1A;labelBackgroundColor=default;entryX=0.5;entryY=0;entryDx=0;entryDy=0;" parent="WIyWlLk6GJQsqaUBKTNV-1" target="KPbJ_3w0T-IEtuTJ-LnU-2" edge="1">
                    <mxGeometry width="50" height="50" relative="1" as="geometry">
                        <mxPoint x="559.5799999999999" y="340.5" as="sourcePoint"/>
                        <mxPoint x="790" y="170" as="targetPoint"/>
                        <Array as="points">
                            <mxPoint x="560" y="240"/>
                            <mxPoint x="780" y="240"/>
                            <mxPoint x="1000" y="240"/>
                        </Array>
                    </mxGeometry>
                </mxCell>
                <mxCell id="KPbJ_3w0T-IEtuTJ-LnU-66" value="GÃ¨re" style="text;html=1;align=center;verticalAlign=middle;resizable=0;points=[];autosize=1;strokeColor=none;fillColor=none;fontFamily=Helvetica;fontSize=11;fontColor=#1A1A1A;labelBackgroundColor=default;" parent="WIyWlLk6GJQsqaUBKTNV-1" vertex="1">
                    <mxGeometry x="767" y="210" width="50" height="30" as="geometry"/>
                </mxCell>
                <mxCell id="KPbJ_3w0T-IEtuTJ-LnU-67" value="" style="endArrow=none;html=1;rounded=1;strokeColor=#736CA8;align=center;verticalAlign=middle;fontFamily=Helvetica;fontSize=11;fontColor=#1A1A1A;labelBackgroundColor=default;exitX=0.5;exitY=1;exitDx=0;exitDy=0;" parent="WIyWlLk6GJQsqaUBKTNV-1" source="zkfFHV4jXpPFQw0GAbJ--6" edge="1">
                    <mxGeometry width="50" height="50" relative="1" as="geometry">
                        <mxPoint x="410" y="1093.199951171875" as="sourcePoint"/>
                        <mxPoint x="999.5" y="515" as="targetPoint"/>
                        <Array as="points">
                            <mxPoint x="170" y="1110"/>
                            <mxPoint x="1000" y="1110"/>
                        </Array>
                    </mxGeometry>
                </mxCell>
                <mxCell id="KPbJ_3w0T-IEtuTJ-LnU-68" value="GÃ¨re" style="text;html=1;align=center;verticalAlign=middle;resizable=0;points=[];autosize=1;strokeColor=none;fillColor=none;fontFamily=Helvetica;fontSize=11;fontColor=#1A1A1A;labelBackgroundColor=default;" parent="WIyWlLk6GJQsqaUBKTNV-1" vertex="1">
                    <mxGeometry x="540" y="1080" width="50" height="30" as="geometry"/>
                </mxCell>
                <mxCell id="KPbJ_3w0T-IEtuTJ-LnU-69" value="1" style="text;html=1;align=center;verticalAlign=middle;resizable=0;points=[];autosize=1;strokeColor=none;fillColor=none;fontFamily=Helvetica;fontSize=11;fontColor=#1A1A1A;labelBackgroundColor=default;" parent="WIyWlLk6GJQsqaUBKTNV-1" vertex="1">
                    <mxGeometry x="150" y="490" width="30" height="30" as="geometry"/>
                </mxCell>
                <mxCell id="KPbJ_3w0T-IEtuTJ-LnU-70" value="*" style="text;html=1;align=center;verticalAlign=middle;resizable=0;points=[];autosize=1;strokeColor=none;fillColor=none;fontFamily=Helvetica;fontSize=18;fontColor=#1A1A1A;labelBackgroundColor=default;strokeWidth=1;" parent="WIyWlLk6GJQsqaUBKTNV-1" vertex="1">
                    <mxGeometry x="150" y="640" width="30" height="40" as="geometry"/>
                </mxCell>
                <mxCell id="KPbJ_3w0T-IEtuTJ-LnU-72" value="*" style="text;html=1;align=center;verticalAlign=middle;resizable=0;points=[];autosize=1;strokeColor=none;fillColor=none;fontFamily=Helvetica;fontSize=18;fontColor=#1A1A1A;labelBackgroundColor=default;" parent="WIyWlLk6GJQsqaUBKTNV-1" vertex="1">
                    <mxGeometry x="827" y="550" width="30" height="40" as="geometry"/>
                </mxCell>
                <mxCell id="KPbJ_3w0T-IEtuTJ-LnU-73" value="1" style="text;html=1;align=center;verticalAlign=middle;resizable=0;points=[];autosize=1;strokeColor=none;fillColor=none;fontFamily=Helvetica;fontSize=11;fontColor=#1A1A1A;labelBackgroundColor=default;" parent="WIyWlLk6GJQsqaUBKTNV-1" vertex="1">
                    <mxGeometry x="640" y="400" width="30" height="30" as="geometry"/>
                </mxCell>
                <mxCell id="KPbJ_3w0T-IEtuTJ-LnU-74" value="" style="endArrow=none;html=1;rounded=1;strokeColor=#736CA8;align=center;verticalAlign=middle;fontFamily=Helvetica;fontSize=11;fontColor=#1A1A1A;labelBackgroundColor=default;exitX=0.997;exitY=0.367;exitDx=0;exitDy=0;exitPerimeter=0;entryX=0;entryY=0.144;entryDx=0;entryDy=0;entryPerimeter=0;" parent="WIyWlLk6GJQsqaUBKTNV-1" source="KPbJ_3w0T-IEtuTJ-LnU-12" target="KPbJ_3w0T-IEtuTJ-LnU-51" edge="1">
                    <mxGeometry width="50" height="50" relative="1" as="geometry">
                        <mxPoint x="380" y="840" as="sourcePoint"/>
                        <mxPoint x="380" y="655" as="targetPoint"/>
                    </mxGeometry>
                </mxCell>
                <mxCell id="KPbJ_3w0T-IEtuTJ-LnU-75" value="PossÃ¨de" style="text;html=1;align=center;verticalAlign=middle;resizable=0;points=[];autosize=1;strokeColor=none;fillColor=none;fontFamily=Helvetica;fontSize=11;fontColor=#1A1A1A;labelBackgroundColor=default;" parent="WIyWlLk6GJQsqaUBKTNV-1" vertex="1">
                    <mxGeometry x="330" y="752.5" width="70" height="30" as="geometry"/>
                </mxCell>
                <mxCell id="KPbJ_3w0T-IEtuTJ-LnU-76" value="1" style="text;html=1;align=center;verticalAlign=middle;resizable=0;points=[];autosize=1;strokeColor=none;fillColor=none;fontFamily=Helvetica;fontSize=11;fontColor=#1A1A1A;labelBackgroundColor=default;" parent="WIyWlLk6GJQsqaUBKTNV-1" vertex="1">
                    <mxGeometry x="245" y="752.5" width="30" height="30" as="geometry"/>
                </mxCell>
                <mxCell id="KPbJ_3w0T-IEtuTJ-LnU-77" value="&lt;font style=&quot;font-size: 12px;&quot;&gt;0..*&lt;/font&gt;" style="text;html=1;align=center;verticalAlign=middle;resizable=0;points=[];autosize=1;strokeColor=none;fillColor=none;fontFamily=Helvetica;fontSize=11;fontColor=#1A1A1A;labelBackgroundColor=default;" parent="WIyWlLk6GJQsqaUBKTNV-1" vertex="1">
                    <mxGeometry x="450" y="752.5" width="40" height="30" as="geometry"/>
                </mxCell>
                <mxCell id="KPbJ_3w0T-IEtuTJ-LnU-78" value="" style="endArrow=none;html=1;rounded=1;strokeColor=#736CA8;align=center;verticalAlign=middle;fontFamily=Helvetica;fontSize=11;fontColor=#1A1A1A;labelBackgroundColor=default;exitX=-0.005;exitY=0.773;exitDx=0;exitDy=0;exitPerimeter=0;entryX=0.5;entryY=0;entryDx=0;entryDy=0;" parent="WIyWlLk6GJQsqaUBKTNV-1" source="KPbJ_3w0T-IEtuTJ-LnU-42" target="KPbJ_3w0T-IEtuTJ-LnU-48" edge="1">
                    <mxGeometry width="50" height="50" relative="1" as="geometry">
                        <mxPoint x="550" y="690" as="sourcePoint"/>
                        <mxPoint x="550" y="505" as="targetPoint"/>
                        <Array as="points">
                            <mxPoint x="570" y="647"/>
                        </Array>
                    </mxGeometry>
                </mxCell>
                <mxCell id="KPbJ_3w0T-IEtuTJ-LnU-79" value="ConcernÃ© par" style="text;html=1;align=center;verticalAlign=middle;resizable=0;points=[];autosize=1;strokeColor=none;fillColor=none;fontFamily=Helvetica;fontSize=11;fontColor=#1A1A1A;labelBackgroundColor=default;" parent="WIyWlLk6GJQsqaUBKTNV-1" vertex="1">
                    <mxGeometry x="620" y="620" width="90" height="30" as="geometry"/>
                </mxCell>
                <mxCell id="KPbJ_3w0T-IEtuTJ-LnU-80" value="1" style="text;html=1;align=center;verticalAlign=middle;resizable=0;points=[];autosize=1;strokeColor=none;fillColor=none;fontFamily=Helvetica;fontSize=11;fontColor=#1A1A1A;labelBackgroundColor=default;" parent="WIyWlLk6GJQsqaUBKTNV-1" vertex="1">
                    <mxGeometry x="737" y="620" width="30" height="30" as="geometry"/>
                </mxCell>
                <mxCell id="KPbJ_3w0T-IEtuTJ-LnU-81" value="0..*" style="text;html=1;align=center;verticalAlign=middle;resizable=0;points=[];autosize=1;strokeColor=none;fillColor=none;fontFamily=Helvetica;fontSize=11;fontColor=#1A1A1A;labelBackgroundColor=default;" parent="WIyWlLk6GJQsqaUBKTNV-1" vertex="1">
                    <mxGeometry x="540" y="680" width="40" height="30" as="geometry"/>
                </mxCell>
                <mxCell id="KPbJ_3w0T-IEtuTJ-LnU-82" value="*" style="text;html=1;align=center;verticalAlign=middle;resizable=0;points=[];autosize=1;strokeColor=none;fillColor=none;fontFamily=Helvetica;fontSize=11;fontColor=#1A1A1A;labelBackgroundColor=default;" parent="WIyWlLk6GJQsqaUBKTNV-1" vertex="1">
                    <mxGeometry x="165" y="860" width="30" height="30" as="geometry"/>
                </mxCell>
                <mxCell id="KPbJ_3w0T-IEtuTJ-LnU-83" value="1" style="text;html=1;align=center;verticalAlign=middle;resizable=0;points=[];autosize=1;strokeColor=none;fillColor=none;fontFamily=Helvetica;fontSize=11;fontColor=#1A1A1A;labelBackgroundColor=default;" parent="WIyWlLk6GJQsqaUBKTNV-1" vertex="1">
                    <mxGeometry x="1000" y="515" width="30" height="30" as="geometry"/>
                </mxCell>
                <mxCell id="KPbJ_3w0T-IEtuTJ-LnU-84" value="" style="endArrow=none;html=1;rounded=1;strokeColor=#736CA8;align=center;verticalAlign=middle;fontFamily=Helvetica;fontSize=11;fontColor=#1A1A1A;labelBackgroundColor=default;entryX=0.989;entryY=0.187;entryDx=0;entryDy=0;entryPerimeter=0;exitX=-0.003;exitY=0.81;exitDx=0;exitDy=0;exitPerimeter=0;" parent="WIyWlLk6GJQsqaUBKTNV-1" source="KPbJ_3w0T-IEtuTJ-LnU-27" target="KPbJ_3w0T-IEtuTJ-LnU-37" edge="1">
                    <mxGeometry width="50" height="50" relative="1" as="geometry">
                        <mxPoint x="420" y="590" as="sourcePoint"/>
                        <mxPoint x="420" y="405" as="targetPoint"/>
                    </mxGeometry>
                </mxCell>
                <mxCell id="KPbJ_3w0T-IEtuTJ-LnU-85" value="Appartient Ã " style="text;whiteSpace=wrap;html=1;fontFamily=Helvetica;fontSize=11;fontColor=#1A1A1A;labelBackgroundColor=default;" parent="WIyWlLk6GJQsqaUBKTNV-1" vertex="1">
                    <mxGeometry x="330" y="405" width="80" height="20" as="geometry"/>
                </mxCell>
                <mxCell id="KPbJ_3w0T-IEtuTJ-LnU-86" value="1" style="text;html=1;align=center;verticalAlign=middle;resizable=0;points=[];autosize=1;strokeColor=none;fillColor=none;fontFamily=Helvetica;fontSize=11;fontColor=#1A1A1A;labelBackgroundColor=default;" parent="WIyWlLk6GJQsqaUBKTNV-1" vertex="1">
                    <mxGeometry x="250" y="405" width="30" height="30" as="geometry"/>
                </mxCell>
                <mxCell id="KPbJ_3w0T-IEtuTJ-LnU-87" value="*" style="text;html=1;align=center;verticalAlign=middle;resizable=0;points=[];autosize=1;strokeColor=none;fillColor=none;fontFamily=Helvetica;fontSize=11;fontColor=#1A1A1A;labelBackgroundColor=default;" parent="WIyWlLk6GJQsqaUBKTNV-1" vertex="1">
                    <mxGeometry x="455" y="405" width="30" height="30" as="geometry"/>
                </mxCell>
                <mxCell id="KPbJ_3w0T-IEtuTJ-LnU-88" value="Justificatife" style="swimlane;fontStyle=0;align=center;verticalAlign=top;childLayout=stackLayout;horizontal=1;startSize=26;horizontalStack=0;resizeParent=1;resizeLast=0;collapsible=1;marginBottom=0;rounded=0;shadow=0;strokeWidth=1;labelBackgroundColor=none;fillColor=#5D7F99;strokeColor=#D0CEE2;fontColor=#1A1A1A;" parent="WIyWlLk6GJQsqaUBKTNV-1" vertex="1">
                    <mxGeometry x="490" y="930" width="160" height="130" as="geometry">
                        <mxRectangle x="130" y="380" width="160" height="26" as="alternateBounds"/>
                    </mxGeometry>
                </mxCell>
                <mxCell id="KPbJ_3w0T-IEtuTJ-LnU-89" value="" style="line;html=1;strokeWidth=1;align=left;verticalAlign=middle;spacingTop=-1;spacingLeft=3;spacingRight=3;rotatable=0;labelPosition=right;points=[];portConstraint=eastwest;labelBackgroundColor=none;fillColor=#5D7F99;strokeColor=#D0CEE2;fontColor=#1A1A1A;rounded=0;" parent="KPbJ_3w0T-IEtuTJ-LnU-88" vertex="1">
                    <mxGeometry y="26" width="160" height="8" as="geometry"/>
                </mxCell>
                <mxCell id="KPbJ_3w0T-IEtuTJ-LnU-90" value="ID_justificatif" style="text;html=1;align=center;verticalAlign=middle;resizable=0;points=[];autosize=1;strokeColor=none;fillColor=none;fontColor=#1A1A1A;" parent="KPbJ_3w0T-IEtuTJ-LnU-88" vertex="1">
                    <mxGeometry y="34" width="160" height="30" as="geometry"/>
                </mxCell>
                <mxCell id="KPbJ_3w0T-IEtuTJ-LnU-91" value="Date_soumission" style="text;html=1;align=center;verticalAlign=middle;resizable=0;points=[];autosize=1;strokeColor=none;fillColor=none;fontColor=#1A1A1A;" parent="KPbJ_3w0T-IEtuTJ-LnU-88" vertex="1">
                    <mxGeometry y="64" width="160" height="30" as="geometry"/>
                </mxCell>
                <mxCell id="KPbJ_3w0T-IEtuTJ-LnU-92" value="Statut" style="text;html=1;align=center;verticalAlign=middle;resizable=0;points=[];autosize=1;strokeColor=none;fillColor=none;fontColor=#1A1A1A;" parent="KPbJ_3w0T-IEtuTJ-LnU-88" vertex="1">
                    <mxGeometry y="94" width="160" height="30" as="geometry"/>
                </mxCell>
                <mxCell id="KPbJ_3w0T-IEtuTJ-LnU-93" value="" style="endArrow=none;html=1;rounded=1;strokeColor=#736CA8;align=center;verticalAlign=middle;fontFamily=Helvetica;fontSize=11;fontColor=#1A1A1A;labelBackgroundColor=default;exitX=0.005;exitY=0.895;exitDx=0;exitDy=0;exitPerimeter=0;" parent="WIyWlLk6GJQsqaUBKTNV-1" source="KPbJ_3w0T-IEtuTJ-LnU-91" edge="1">
                    <mxGeometry width="50" height="50" relative="1" as="geometry">
                        <mxPoint x="230" y="1045" as="sourcePoint"/>
                        <mxPoint x="230" y="860" as="targetPoint"/>
                        <Array as="points">
                            <mxPoint x="230" y="1020"/>
                        </Array>
                    </mxGeometry>
                </mxCell>
                <mxCell id="KPbJ_3w0T-IEtuTJ-LnU-94" value="" style="endArrow=none;html=1;rounded=1;strokeColor=#736CA8;align=center;verticalAlign=middle;fontFamily=Helvetica;fontSize=11;fontColor=#1A1A1A;labelBackgroundColor=default;exitX=1.004;exitY=0.165;exitDx=0;exitDy=0;exitPerimeter=0;entryX=0.25;entryY=1;entryDx=0;entryDy=0;" parent="WIyWlLk6GJQsqaUBKTNV-1" source="KPbJ_3w0T-IEtuTJ-LnU-91" target="KPbJ_3w0T-IEtuTJ-LnU-2" edge="1">
                    <mxGeometry width="50" height="50" relative="1" as="geometry">
                        <mxPoint x="970" y="700" as="sourcePoint"/>
                        <mxPoint x="960" y="520" as="targetPoint"/>
                        <Array as="points">
                            <mxPoint x="960" y="998"/>
                        </Array>
                    </mxGeometry>
                </mxCell>
                <mxCell id="KPbJ_3w0T-IEtuTJ-LnU-95" value="Accepte ou RÃ©fuse" style="text;html=1;align=center;verticalAlign=middle;resizable=0;points=[];autosize=1;strokeColor=none;fillColor=none;fontFamily=Helvetica;fontSize=11;fontColor=#1A1A1A;labelBackgroundColor=default;" parent="WIyWlLk6GJQsqaUBKTNV-1" vertex="1">
                    <mxGeometry x="762" y="968" width="120" height="30" as="geometry"/>
                </mxCell>
                <mxCell id="KPbJ_3w0T-IEtuTJ-LnU-96" value="Soumetre" style="text;html=1;align=center;verticalAlign=middle;resizable=0;points=[];autosize=1;strokeColor=none;fillColor=none;fontFamily=Helvetica;fontSize=11;fontColor=#1A1A1A;labelBackgroundColor=default;" parent="WIyWlLk6GJQsqaUBKTNV-1" vertex="1">
                    <mxGeometry x="260" y="990" width="70" height="30" as="geometry"/>
                </mxCell>
                <mxCell id="KPbJ_3w0T-IEtuTJ-LnU-97" value="" style="endArrow=none;html=1;rounded=1;strokeColor=#736CA8;align=center;verticalAlign=middle;fontFamily=Helvetica;fontSize=11;fontColor=#1A1A1A;labelBackgroundColor=default;exitX=0.125;exitY=-0.006;exitDx=0;exitDy=0;exitPerimeter=0;" parent="WIyWlLk6GJQsqaUBKTNV-1" source="KPbJ_3w0T-IEtuTJ-LnU-48" edge="1">
                    <mxGeometry width="50" height="50" relative="1" as="geometry">
                        <mxPoint x="510" y="680" as="sourcePoint"/>
                        <mxPoint x="510" y="495" as="targetPoint"/>
                    </mxGeometry>
                </mxCell>
                <mxCell id="KPbJ_3w0T-IEtuTJ-LnU-98" value="Consulte" style="text;html=1;align=center;verticalAlign=middle;resizable=0;points=[];autosize=1;strokeColor=none;fillColor=none;fontFamily=Helvetica;fontSize=11;fontColor=#1A1A1A;labelBackgroundColor=default;" parent="WIyWlLk6GJQsqaUBKTNV-1" vertex="1">
                    <mxGeometry x="510" y="555" width="70" height="30" as="geometry"/>
                </mxCell>
                <mxCell id="0" value="" style="endArrow=none;html=1;rounded=1;strokeColor=#736CA8;align=center;verticalAlign=middle;fontFamily=Helvetica;fontSize=11;fontColor=#1A1A1A;labelBackgroundColor=default;exitX=0.467;exitY=0.01;exitDx=0;exitDy=0;exitPerimeter=0;" edge="1" parent="WIyWlLk6GJQsqaUBKTNV-1" source="KPbJ_3w0T-IEtuTJ-LnU-88">
                    <mxGeometry width="50" height="50" relative="1" as="geometry">
                        <mxPoint x="564.33" y="918" as="sourcePoint"/>
                        <mxPoint x="564.33" y="840" as="targetPoint"/>
                    </mxGeometry>
                </mxCell>
                <mxCell id="1" value="1" style="text;html=1;align=center;verticalAlign=middle;resizable=0;points=[];autosize=1;strokeColor=none;fillColor=none;" vertex="1" parent="WIyWlLk6GJQsqaUBKTNV-1">
                    <mxGeometry x="555" y="840" width="30" height="30" as="geometry"/>
                </mxCell>
                <mxCell id="2" value="1" style="text;html=1;align=center;verticalAlign=middle;resizable=0;points=[];autosize=1;strokeColor=none;fillColor=none;" vertex="1" parent="WIyWlLk6GJQsqaUBKTNV-1">
                    <mxGeometry x="555" y="910" width="30" height="30" as="geometry"/>
                </mxCell>
                <mxCell id="3" value="" style="endArrow=none;html=1;rounded=1;strokeColor=#736CA8;align=center;verticalAlign=middle;fontFamily=Helvetica;fontSize=11;fontColor=#1A1A1A;labelBackgroundColor=default;exitX=0;exitY=0.25;exitDx=0;exitDy=0;" edge="1" parent="WIyWlLk6GJQsqaUBKTNV-1" source="KPbJ_3w0T-IEtuTJ-LnU-40">
                    <mxGeometry width="50" height="50" relative="1" as="geometry">
                        <mxPoint x="245" y="635" as="sourcePoint"/>
                        <mxPoint x="240" y="490" as="targetPoint"/>
                        <Array as="points">
                            <mxPoint x="240" y="615"/>
                        </Array>
                    </mxGeometry>
                </mxCell>
                <mxCell id="5" value="1" style="text;html=1;align=center;verticalAlign=middle;resizable=0;points=[];autosize=1;strokeColor=none;fillColor=none;" vertex="1" parent="WIyWlLk6GJQsqaUBKTNV-1">
                    <mxGeometry x="230" y="485" width="30" height="30" as="geometry"/>
                </mxCell>
                <mxCell id="6" value="*" style="text;html=1;align=center;verticalAlign=middle;resizable=0;points=[];autosize=1;strokeColor=none;fillColor=none;" vertex="1" parent="WIyWlLk6GJQsqaUBKTNV-1">
                    <mxGeometry x="740" y="590" width="30" height="30" as="geometry"/>
                </mxCell>
                <mxCell id="7" value="Contient" style="text;whiteSpace=wrap;html=1;" vertex="1" parent="WIyWlLk6GJQsqaUBKTNV-1">
                    <mxGeometry x="400" y="592.5" width="50" height="25" as="geometry"/>
                </mxCell>
                <mxCell id="9" value="1" style="text;html=1;align=center;verticalAlign=middle;resizable=0;points=[];autosize=1;strokeColor=none;fillColor=none;" vertex="1" parent="WIyWlLk6GJQsqaUBKTNV-1">
                    <mxGeometry x="930" y="515" width="30" height="30" as="geometry"/>
                </mxCell>
                <mxCell id="10" value="*" style="text;html=1;align=center;verticalAlign=middle;resizable=0;points=[];autosize=1;strokeColor=none;fillColor=none;" vertex="1" parent="WIyWlLk6GJQsqaUBKTNV-1">
                    <mxGeometry x="650" y="968" width="30" height="30" as="geometry"/>
                </mxCell>
            </root>
        </mxGraphModel>
    </diagram>
</mxfile>